<svg height="100%" width="100%" viewBox="0 0 512 512" version="1.1" xmlns="http://www.w3.org/2000/svg" xmlns:cc="http://creativecommons.org/ns#" xmlns:dc="http://purl.org/dc/elements/1.1/" xmlns:rdf="http://www.w3.org/1999/02/22-rdf-syntax-ns#">
	<path id="devto" stroke="inherit" fill="inherit" d="m137.28 201.47c-4.4343-3.3143-8.88-4.9714-13.314-4.9714h-19.931v119.39h19.943c4.4343 0 8.88-1.6572 13.314-4.9714 4.4343-3.3143 6.6514-8.2857 6.6514-14.926v-79.6c-0.0114-6.6286-2.24-11.611-6.6629-14.926zm324.55-201.47h-411.66c-27.657 0-50.103 22.389-50.171 50.057v411.89c0.068561 27.669 22.514 50.057 50.171 50.057h411.66c27.669 0 50.103-22.389 50.171-50.057v-411.89c-0.06857-27.669-22.514-50.057-50.171-50.057zm-285.6 296.22c0 21.497-13.269 54.069-55.269 54h-53.029v-189.1h54.149c40.503 0 54.126 32.526 54.137 54.034zm115.06-101.33h-60.891v43.909h37.223v33.794h-37.223v43.897h60.903v33.794h-71.063c-12.754 0.33142-23.36-9.7486-23.68-22.503v-142.98c-0.30857-12.743 9.7829-23.326 22.526-23.646h72.217zm118.45 131.76c-15.086 35.143-42.114 28.149-54.217 0l-44.034-165.49h37.223l33.954 129.97 33.794-129.97h37.234z"/>
</svg>
