<svg xmlns:rdf="http://www.w3.org/1999/02/22-rdf-syntax-ns#" xmlns="http://www.w3.org/2000/svg" height="100%" width="100%" version="1.1" xmlns:cc="http://creativecommons.org/ns#" xmlns:dc="http://purl.org/dc/elements/1.1/" viewBox="0 0 512 512">
 <path id="email" stroke="inherit" fill="inherit" d="m27.688 86c-7.597 0-14.459 3.046-19.452 7.991l220.08 203.15c7.2636 7.2435 17.77 11.329 28.004 11.329 10.238 0 20.06-4.0684 27.324-11.317l218.5-204.64c-4.81-4.063-11.03-6.51-17.84-6.51h-456.62zm483.49 21.05-170.13 159.2 170.95 129.43v-281.86c0-2.3358-0.28754-4.6013-0.82227-6.7663zm-510.85 2.45c-0.21607 1.41-0.33008 2.85-0.33008 4.32v284.36c0 2.272 0.27447 4.4765 0.78125 6.5877l169.68-138.05-170.13-157.22zm182.03 168.21-173.39 141c4.919 4.53 11.485 7.29 18.718 7.29h456.62c9.8291 0 18.423-5.0989 23.334-12.814l-178.88-135.44-27.307 25.552c-11.332 13.579-28.066 21.421-45.703 21.421-17.621 0-34.34-7.8299-45.672-21.388l-27.727-25.623z"/>
</svg>
