<?xml version="1.0" encoding="UTF-8" standalone="no"?>
<svg id="github-icon" xmlns:rdf="http://www.w3.org/1999/02/22-rdf-syntax-ns#" xmlns="http://www.w3.org/2000/svg" height="512" viewBox="0 0 512.00001 512.00001" width="512" version="1.1" xmlns:cc="http://creativecommons.org/ns#" xmlns:dc="http://purl.org/dc/elements/1.1/">
 <g id="layer1" transform="matrix(.99959 0 0 1.0225 -1.0129 -551.84)">
  <path id="path5696" d="m192.31 439.25 0.0379 50.038c0.0174 5.1433-8.2587 11.112-14.909 9.2588-105.94-33.86-175.92-131.87-175.92-243.09 0.0024-141.17 114.44-255.6 255.6-255.6s255.6 114.43 255.6 255.6c0 111.57-72.369 210.25-178.83 243.73-8.7191 0.004-12.028-5.3526-13.692-9.8949l-0.027-80.92c-1.0122-18.147-5.7555-29.769-16.564-39.611 100.38-5.5912 115.73-79.105 116.17-126.17-4.2301-42.961-12.258-48.258-27.251-68.546 8.0459-22.74 7.079-44.661-2.5828-67.847-2.388-0.32053-9.3797 0.00047-12.253 0.31297-22.447 2.231-40.277 14.354-56.966 26.121-20.586-6.1975-42.476-8.6183-64.941-8.6183-23.287 0-44.237 2.6379-64.274 8.7-9.4578-6.5693-38.352-25.184-60.703-26.741-3.5374-0.0188-7.0713 0.4383-10.451 1.1809-9.1708 21.164-8.4892 44.98-1.8498 67.965-14.879 13.384-26.628 35.626-26.611 67.587 2.1508 57.403 19.837 118.88 117.01 125.98-11.19 11.264-13.628 19.205-15.627 33.976-9.7644 4.6783-22.162 7.1667-31.151 7.4675-29.75-1.5-44.568-31.591-49.341-36.895-18.932-21.992-41.366-19.269-44.548-14.319 0 0-1.2813 4.9214 4.2579 8.724 10.977 7.5356 15.358 12.392 23.319 20.974 10.43 16.263 6.8943 26.163 27.577 41.366 24.677 19.811 67.446 9.6342 68.887 9.2839" transform="translate(0,540.36)" stroke="#000" fill="none"/>
 </g>
</svg>
