<svg id="github-icon" xmlns:rdf="http://www.w3.org/1999/02/22-rdf-syntax-ns#" xmlns="http://www.w3.org/2000/svg" viewBox="0 0 512 512" height="100%" width="100%" version="1.1" xmlns:cc="http://creativecommons.org/ns#" xmlns:dc="http://purl.org/dc/elements/1.1/">
 <g id="github" stroke="inherit" fill="inherit">
  <path id="path4" d="m191.09 450.54 0.038 51.308c0.0174 5.2738-8.2716 11.394-14.932 9.4937-106.11-34.72-176.2-135.21-176.2-249.25 0.0024038-144.76 114.62-262.09 256-262.09 141.38 0.00000224 256 117.33 256 262.09 0 114.4-72.48 215.58-179.11 249.91-8.7327 0.004-12.047-5.4884-13.713-10.146l-0.027-82.973c-1.0138-18.607-5.7645-30.524-16.59-40.616 100.54-5.7331 115.91-81.112 116.35-129.37-4.2367-44.051-12.277-49.482-27.294-70.285 8.0585-23.317 7.0901-45.794-2.5868-69.569-2.3917-0.32866-9.3944 0.00048-12.272 0.32091-22.482 2.2876-40.34 14.718-57.055 26.784-20.618-6.3548-42.542-8.837-65.043-8.837-23.323 0-44.306 2.7048-64.375 8.9208-9.4726-6.736-38.412-25.823-60.798-27.42-3.5429-0.0193-7.0824 0.44942-10.467 1.2109-9.1852 21.701-8.5025 46.121-1.8527 69.69-14.902 13.724-26.67 36.53-26.653 69.302 2.1542 58.86 19.868 121.9 117.19 129.18-11.208 11.55-13.649 19.692-15.651 34.838-9.7797 4.797-22.197 7.3485-31.2 7.657-29.797-1.5381-44.638-32.393-49.418-37.831-18.962-22.55-41.431-19.758-44.618-14.682 0 0-1.2833 5.0463 4.2646 8.9454 10.994 7.7268 15.382 12.706 23.355 21.506 10.446 16.676 6.9051 26.827 27.62 42.416 24.716 20.314 67.552 9.8787 68.995 9.5195"/>
 </g>
</svg>
