<svg xmlns:rdf="http://www.w3.org/1999/02/22-rdf-syntax-ns#" xmlns="http://www.w3.org/2000/svg" height="100%" width="100%" version="1.1" xmlns:cc="http://creativecommons.org/ns#" xmlns:dc="http://purl.org/dc/elements/1.1/" viewBox="0 0 512 512">
 <g id="gitlab" stroke="inherit" fill="inherit">
  <path d="m162.22 201.55 93.85 289.45 93.8-289.45z"/>
  <path d="m416.11 21.965c3.9777-0.000001 8.0162 3.737 11.048 10.535l54.893 169.06-132.18 0.56049 55.075-169.62c3.0297-6.778 7.1949-10.535 11.166-10.535z"/>
  <path d="m95.518 20c4.3607-0.000002 8.55 4.4832 11.68 12.499l55.021 169.45-132.13-0.393 54.892-169.06c3.131-8.037 6.168-12.5 10.535-12.5z"/>
  <path d="m512 293.76c-1.2952 6.1702-3.5824 11.692-6.638 16.018-83.12 60.37-166.2 120.81-249.29 181.22l225.98-289.44c9.9767 30.736 19.962 61.47 29.947 92.203z"/>
  <path d="m30.09 201.56 225.98 289.44c-83.26-60.46-166.39-121.1-249.69-181.51-2.897-4.17-5.09-9.43-6.38-15.29 10.036-30.88 20.063-61.76 30.09-92.64z"/>
 </g>
</svg>
