<?xml version="1.0" encoding="UTF-8" standalone="no"?>
<svg id="linkedin-icon" xmlns:rdf="http://www.w3.org/1999/02/22-rdf-syntax-ns#" xmlns="http://www.w3.org/2000/svg" height="512" viewBox="0 0 512.00001 512.00001" width="512" version="1.1" xmlns:cc="http://creativecommons.org/ns#" xmlns:dc="http://purl.org/dc/elements/1.1/">
 <path id="rect6426" stroke-linejoin="round" d="m35.785 0.5c-19.548 0-35.287 15.737-35.287 35.285l0.00005 440.42c0 19.56 15.739 35.3 35.287 35.3h440.42c19.56 0 35.3-15.74 35.3-35.29v-440.42c0-19.553-15.74-35.29-35.29-35.29h-440.42zm76.845 66.086a47.924 47.924 0 0 1 47.92 47.924 47.924 47.924 0 0 1 -47.92 47.92 47.924 47.924 0 0 1 -47.925 -47.92 47.924 47.924 0 0 1 47.925 -47.924zm238.42 115.04c63.11 0.35 85.4 49.16 87.34 85.91v169.71h-76.75v-142.08c0.9-31.29-16.73-41.45-39.68-41.74-23.79-0.31-44.53 11.76-44.82 41.95v141.93l-5.35 0.01-70.7 0.01v-248.52h70.7l-0.02 37.86c6.25-24.93 45.11-45.03 79.28-45.03v-0.01zm-277.31 7.12h76.77v248.5h-76.77v-248.5z" stroke="#000" stroke-width=".99902" fill="none"/>
</svg>
