<svg id="svg2" xmlns:rdf="http://www.w3.org/1999/02/22-rdf-syntax-ns#" xmlns="http://www.w3.org/2000/svg" height="100%" width="100%" version="1.1" xmlns:cc="http://creativecommons.org/ns#" xmlns:dc="http://purl.org/dc/elements/1.1/" viewBox="0 0 512 512">
 <path id="linkedin" stroke="inherit" fill="inherit" d="m35.356 0c-19.586 0-35.356 15.768-35.356 35.354l0.000050097 441.28c0 19.6 15.77 35.37 35.356 35.37h441.28c19.59 0 35.36-15.77 35.36-35.36v-441.28c0-19.587-15.77-35.355-35.36-35.355h-441.28zm76.994 66.215a48.017 48.017 0 0 1 48.01 48.015 48.017 48.017 0 0 1 -48.01 48.02 48.017 48.017 0 0 1 -48.018 -48.02 48.017 48.017 0 0 1 48.018 -48.015zm238.88 115.26c63.233 0.35068 85.566 49.256 87.51 86.077v170.04h-76.899v-142.36c0.90175-31.351-16.762-41.531-39.757-41.821-23.836-0.3106-44.617 11.783-44.907 42.032v142.21l-5.3604 0.01-70.837 0.01v-249h70.837l-0.02 37.934c6.2621-24.979 45.198-45.118 79.434-45.118v-0.01zm-277.85 7.1339h76.919v248.98h-76.919v-248.98z"/>
</svg>
