<svg xmlns:rdf="http://www.w3.org/1999/02/22-rdf-syntax-ns#" xmlns="http://www.w3.org/2000/svg" height="100%" width="100%" version="1.1" xmlns:cc="http://creativecommons.org/ns#" xmlns:dc="http://purl.org/dc/elements/1.1/" viewBox="0 0 512 512">
 <path id="rss" stroke="inherit" fill="inherit" d="m40.168 114.31-0.001-82.286c238.59 10.409 429.57 201.45 439.94 440l-82.239-0.0116c-10.24-193.17-164.51-347.44-357.7-357.7zm-0.06607 144.06c115.25 6.3973 207.25 98.42 213.62 213.65l73.898 0.003c-9.15-154.83-132.67-278.36-287.52-287.54zm116.75 155.12a57.924 57.92 0 0 1 -57.924 57.92 57.924 57.92 0 0 1 -57.924 -57.92 57.924 57.92 0 0 1 57.924 -57.92 57.924 57.92 0 0 1 57.924 57.92z"/>
</svg>
