<?xml version="1.0" encoding="UTF-8" standalone="no"?>
<svg id="stackoverflow-icon" xmlns:rdf="http://www.w3.org/1999/02/22-rdf-syntax-ns#" xmlns="http://www.w3.org/2000/svg" height="512" width="512" version="1.1" xmlns:cc="http://creativecommons.org/ns#" xmlns:dc="http://purl.org/dc/elements/1.1/" viewBox="0 0 512.00001 512.00001">
 <g id="layer1" transform="translate(0 -540.36)">
  <path id="rect4267" d="m284.88 606.93h39.081v199.23h-39.081zm-137.69 39.22 35.42-16.517 84.2 180.57-35.42 16.516zm-102.26 88.06 25.121-29.94 152.62 128.07-25.12 29.94zm-53.761 94.97 16.516-35.42 180.57 84.2-16.51 35.42zm-25.926 84.93 10.115-37.75 192.45 51.566-10.115 37.75zm-13.799 74.513 6.7864-38.488 196.21 34.597-6.7864 38.488zm221.85 70.153 29.948-169.81 38.44 6.7781-36.699 208.13c-121.05-21.334-220.32-38.912-330.13-58.17l36.706-208.17 38.44 6.7781-29.943 169.8z" transform="rotate(-10)" stroke="#000" fill="none"/>
 </g>
</svg>
