<svg id="svg2" xmlns:rdf="http://www.w3.org/1999/02/22-rdf-syntax-ns#" xmlns="http://www.w3.org/2000/svg" height="100%" width="100%" version="1.1" xmlns:cc="http://creativecommons.org/ns#" xmlns:dc="http://purl.org/dc/elements/1.1/" viewBox="0 0 512 512">
 <g id="stackoverflow" stroke="inherit" fill="inherit">
  <path id="path5" d="m387.04 6.8117 38.42-6.8117 34.54 196.94l-38.42 6.81zm-128.56 62.767 31.95-22.5 114.08 163.81-31.95 22.5zm-85.268 104.87 19.507-33.974 172.24 99.994-19.506 33.974zm-36.39 103.25 10.097-37.891 192.12 51.758-10.091 37.89zm-10.766 88.471 3.4003-39.078 198.14 17.429-3.4002 39.078zm-0.64919 76.06-0.00007-39.228 198.89-0.00012 0.00006 39.228zm230.27 30.678 0.006-173.07 38.966 0.00009-0.00006 212.13c-122.71 0-223.36-0.07-334.65 0.03l0.000012-212.17 38.966 0.00009-0.0026 173.06z"/>
 </g>
</svg>
