<svg id="svg2" xmlns:rdf="http://www.w3.org/1999/02/22-rdf-syntax-ns#" xmlns="http://www.w3.org/2000/svg" height="100%" width="100%" version="1.1" xmlns:cc="http://creativecommons.org/ns#" xmlns:dc="http://purl.org/dc/elements/1.1/" viewBox="0 0 512 512">
 <g id="twitch" stroke="inherit" fill="inherit">
  <rect y="133.8" x="211.95" width="43.436" height="132.34"/>
  <rect y="133.8" x="334.25" width="43.436" height="132.34"/>
  <path d="m501 0.00007c-152.51 0.003877-305.03-0.004269-457.54 0.003915l-32.46 89.044v355.98l122.46 0.0215-0.004 66.942 66.8 0.01c22.384-22.332 44.744-44.665 67.106-66.997h99.815l133.82-133.63c0-103.79-0.00005-207.58 0.002-311.37zm-412.58 43.877h368.68c0.0253 81.643-0.0446 163.29 0 244.93l-79.053 78.929-121.98 0.01-66.757 66.651 0.0117-67.028-100.91 0.0234 0.002-323.51z"/>
 </g>
</svg>
