<?xml version="1.0" encoding="UTF-8" standalone="no"?>
<svg id="twitter-icon" xmlns:rdf="http://www.w3.org/1999/02/22-rdf-syntax-ns#" xmlns="http://www.w3.org/2000/svg" height="512" width="512" version="1.1" xmlns:cc="http://creativecommons.org/ns#" xmlns:dc="http://purl.org/dc/elements/1.1/" viewBox="0 0 511.99999 512.00001">
 <g id="layer1" transform="translate(0 -540.36)">
  <path id="path4560" d="m456.74 683.47c0.3939 6.7193 0.59381 13.495 0.59381 20.322 0 175.24-131.75 317.3-294.28 317.3-57.168 0-113.1-17.954-160.89-51.633 6.9189 0.7516 13.803 1.11 20.691 1.11 49.543 0 95.155-18.145 131.43-48.607-45.921-1.3018-84.35-34.112-97.658-78.845 6.8859 1.7431 13.901 2.5779 20.937 2.5779 9.9582 0 19.562-1.6363 28.585-4.6735-49.722-9.8614-85.818-56.593-85.818-111.1 0-0.36347 0.0016-0.72654 0.0048-1.0892 12.765 9.0748 27.72 13.912 43.01 13.912 1.0748 0 2.1446-0.0233 3.2084-0.0639-28.572-20.55-45.782-55.25-45.782-92.28 0-20.694 5.2607-40.062 14.419-56.636 55.764 68.459 133.85 110.92 217.37 118.75-2.2829-9.3575-3.5027-19.249-3.5027-28.94 0-62.169 46.741-112.57 104.4-112.57 29.934 0 56.869 13.49 75.905 35.254 25.295-2.3064 48.419-12.221 67.497-27.537-5.9814 27.009-22.516 49.011-44.143 61.304 1.3933 0.0616 2.7876 0.0921 4.182 0.0921 19.966 0 38.736-6.2612 54.482-16.924-12.56 24.628-31.236 45.658-54.638 60.278z" stroke="#000" stroke-width="1.1028" fill="none"/>
 </g>
</svg>
