<svg id="svg32" xmlns:rdf="http://www.w3.org/1999/02/22-rdf-syntax-ns#" xmlns="http://www.w3.org/2000/svg" height="100%" width="100%" version="1.1" xmlns:cc="http://creativecommons.org/ns#" xmlns:dc="http://purl.org/dc/elements/1.1/" stroke="inherit" fill="inherit" viewBox="0 0 512 512">
 <path id="twitter" stroke="inherit" fill="inherit" d="m457.27 143.44c0.39451 6.718 0.59473 13.492 0.59473 20.318 0.01 175.21-131.94 317.24-294.72 317.24-57.26 0-113.28-17.95-161.14-51.62 6.9295 0.75145 13.824 1.1098 20.723 1.1098 49.619 0 95.301-18.141 131.63-48.598-45.992-1.3016-84.48-34.105-97.808-78.83 6.8965 1.7428 13.922 2.5774 20.969 2.5774 9.9735 0 19.592-1.636 28.629-4.6726-49.798-9.8595-85.95-56.582-85.95-111.08 0-0.36339 0.0016-0.72639 0.0048-1.089 12.785 9.073 27.763 13.909 43.076 13.909 1.0765 0 2.1479-0.0233 3.2133-0.0639-28.616-20.546-45.852-55.239-45.852-92.262 0-20.69 5.2688-40.054 14.441-56.625 55.85 68.446 134.06 110.9 217.7 118.73-2.2864-9.3557-3.5081-19.245-3.5081-28.934 0-62.157 46.813-112.55 104.56-112.55 29.98 0 56.956 13.487 76.022 35.247 25.334-2.306 48.493-12.219 67.601-27.532-5.9906 27.004-22.551 49.001-44.211 61.292 1.3954 0.0616 2.7919 0.0921 4.1884 0.0921 19.997 0 38.796-6.26 54.566-16.921-12.579 24.623-31.284 45.649-54.722 60.266z"/>
</svg>
