<?xml version="1.0" encoding="UTF-8" standalone="no"?>
<svg id="svg4184" xmlns:rdf="http://www.w3.org/1999/02/22-rdf-syntax-ns#" xmlns="http://www.w3.org/2000/svg" class="icon" viewBox="0 0 1024 1024" height="512" width="512" version="1.1" xmlns:cc="http://creativecommons.org/ns#" xmlns:dc="http://purl.org/dc/elements/1.1/">
 <path id="path4186" fill="#5fd38d" d="m0 0v1024h1024v-1024h-1024zm815.09 465.19c33.389 0 60.586 10.903 81.589 32.708 21.003 21.587 35.747 53.426 44.229 95.51l-52.51 23.219c-4.4429-23.114-13.196-41.429-26.255-54.948-12.925-13.737-28.201-20.604-45.839-20.604-26.927 0-47.394 13.519-61.396 40.557-13.867 27.038-20.802 66.615-20.802 118.73 0 52.987 7.135 93.433 21.406 121.34 14.406 27.911 35.142 41.87 62.203 41.87 35.947 0 60.92-29.224 74.922-87.661l51.906 31.729c-11.175 44.483-27.605 77.627-49.281 99.432-21.542 21.587-47.389 32.38-77.547 32.38-45.776 0-81.182-20.931-106.22-62.797-24.907-42.084-37.365-100.85-37.365-176.3 0-75.664 12.052-133.78 36.151-174.33 24.1-40.558 59.037-60.839 104.81-60.839zm-547.69 6.8698h60.385l41.198 297.64 9.2865 71.958c3.7698-30.309 7.4058-59.203 10.906-86.677 3.6351-27.693 17.099-122 40.391-282.92h66.646l35.948 245.31c2.8273 18.316 7.6068 59.748 14.339 124.29l5.0468-37.943 10.703-75.224 34.333-256.43h60.38l-73.51 460.85h-70.682l-38.573-266.57c-4.7122-31.399-8.6802-64.219-11.911-98.453-3.2312 28.565-5.8607 50.371-7.8802 65.417-2.0195 14.828-16.358 114.7-43.016 299.6h-70.682l-73.307-460.85z"/>
</svg>
