<?xml version="1.0" encoding="UTF-8" standalone="no"?>
<svg
   xmlns:dc="http://purl.org/dc/elements/1.1/"
   xmlns:cc="http://creativecommons.org/ns#"
   xmlns:rdf="http://www.w3.org/1999/02/22-rdf-syntax-ns#"
   xmlns:svg="http://www.w3.org/2000/svg"
   xmlns="http://www.w3.org/2000/svg"
   id="svg4184"
   version="1.1"
   viewBox="0 0 1024 1024"
   height="512"
   class="icon">
  <defs
     id="vanillawc" />
  <path
     id="path4186"
     d="m 128,128 0,768 768,0 0,-768 -768,0 z m 611.3164,348.89062 c 25.042,0 45.4392,8.17736 61.19142,24.53126 15.7522,16.19036 26.8104,40.06978 33.17186,71.6328 l -39.3828,17.41408 c -3.3322,-17.33514 -9.89676,-31.07154 -19.69142,-41.21094 -9.69366,-10.30296 -21.15108,-15.45314 -34.3789,-15.45314 -20.19514,0 -35.5454,10.13914 -46.04688,30.41798 -10.4005,20.27882 -15.60156,49.96106 -15.60156,89.04688 0,39.73996 5.35126,70.07482 16.0547,91.0078 10.8044,20.933 26.35622,31.40234 46.65234,31.40234 26.96052,0 45.68992,-21.91764 56.1914,-65.74608 l 38.92968,23.79686 c -8.38098,33.36196 -20.70384,58.22034 -36.96092,74.57422 -16.15612,16.19036 -35.5416,24.28516 -58.16016,24.28516 -34.33176,0 -60.88648,-15.69818 -79.66798,-47.09766 -18.6805,-31.56302 -28.02342,-75.63816 -28.02342,-132.22264 0,-56.74802 9.03862,-100.33176 27.11328,-130.75 18.07464,-30.41826 44.27762,-45.62892 78.60936,-45.62892 z m -410.76952,5.15234 45.28906,0 30.89844,223.23048 6.96484,53.96874 c 2.82732,-22.7319 5.55432,-44.4019 8.17968,-65.0078 2.72636,-20.76946 12.82418,-91.49966 30.29298,-212.19142 l 49.98436,0 26.96094,183.98048 c 2.1205,13.73728 5.70512,44.81122 10.75392,93.21874 l 3.78514,-28.45702 8.02736,-56.41798 25.75,-192.32422 45.28516,0 -55.13282,345.64064 -53.01172,0 -28.92968,-199.92578 c -3.53416,-23.54962 -6.51018,-48.16424 -8.9336,-73.83986 -2.42342,21.42362 -4.39552,37.77832 -5.91016,49.0625 -1.51464,11.12066 -12.26852,86.0221 -32.26172,224.70314 l -53.01172,0 -54.98046,-345.64064 z"
     style="fill:#5fd38d" />
</svg>
