<?xml version="1.0" encoding="UTF-8" standalone="no"?>
<svg
   xmlns:dc="http://purl.org/dc/elements/1.1/"
   xmlns:cc="http://creativecommons.org/ns#"
   xmlns:rdf="http://www.w3.org/1999/02/22-rdf-syntax-ns#"
   xmlns:svg="http://www.w3.org/2000/svg"
   xmlns="http://www.w3.org/2000/svg"
   xmlns:sodipodi="http://sodipodi.sourceforge.net/DTD/sodipodi-0.dtd"
   xmlns:inkscape="http://www.inkscape.org/namespaces/inkscape"
   id="svg4184"
   class="icon"
   viewBox="0 0 1024 1024"
   height="512"
   width="512"
   version="1.1"
   sodipodi:docname="vanillawc.svg"
   inkscape:version="1.0.1 (3bc2e813f5, 2020-09-07)"
   inkscape:export-filename="/home/evan/Code/vanillawc/vanillawc/assets/vanillawc-icon/vanillawc[256x256].png"
   inkscape:export-xdpi="48"
   inkscape:export-ydpi="48">
  <metadata
     id="metadata8">
    <rdf:RDF>
      <cc:Work
         rdf:about="">
        <dc:format>image/svg+xml</dc:format>
        <dc:type
           rdf:resource="http://purl.org/dc/dcmitype/StillImage" />
      </cc:Work>
    </rdf:RDF>
  </metadata>
  <defs
     id="defs6" />
  <sodipodi:namedview
     pagecolor="#ffffff"
     bordercolor="#666666"
     borderopacity="1"
     objecttolerance="10"
     gridtolerance="10"
     guidetolerance="10"
     inkscape:pageopacity="0"
     inkscape:pageshadow="2"
     inkscape:window-width="1317"
     inkscape:window-height="893"
     id="namedview4"
     showgrid="false"
     inkscape:zoom="0.86040532"
     inkscape:cx="-128.64206"
     inkscape:cy="161.824"
     inkscape:window-x="252"
     inkscape:window-y="58"
     inkscape:window-maximized="0"
     inkscape:current-layer="svg4184" />
  <path
     id="path4186"
     fill="#5fd38d"
     d="m0 0v1024h1024v-1024h-1024zm815.09 465.19c33.389 0 60.586 10.903 81.589 32.708 21.003 21.587 35.747 53.426 44.229 95.51l-52.51 23.219c-4.4429-23.114-13.196-41.429-26.255-54.948-12.925-13.737-28.201-20.604-45.839-20.604-26.927 0-47.394 13.519-61.396 40.557-13.867 27.038-20.802 66.615-20.802 118.73 0 52.987 7.135 93.433 21.406 121.34 14.406 27.911 35.142 41.87 62.203 41.87 35.947 0 60.92-29.224 74.922-87.661l51.906 31.729c-11.175 44.483-27.605 77.627-49.281 99.432-21.542 21.587-47.389 32.38-77.547 32.38-45.776 0-81.182-20.931-106.22-62.797-24.907-42.084-37.365-100.85-37.365-176.3 0-75.664 12.052-133.78 36.151-174.33 24.1-40.558 59.037-60.839 104.81-60.839zm-547.69 6.8698h60.385l41.198 297.64 9.2865 71.958c3.7698-30.309 7.4058-59.203 10.906-86.677 3.6351-27.693 17.099-122 40.391-282.92h66.646l35.948 245.31c2.8273 18.316 7.6068 59.748 14.339 124.29l5.0468-37.943 10.703-75.224 34.333-256.43h60.38l-73.51 460.85h-70.682l-38.573-266.57c-4.7122-31.399-8.6802-64.219-11.911-98.453-3.2312 28.565-5.8607 50.371-7.8802 65.417-2.0195 14.828-16.358 114.7-43.016 299.6h-70.682l-73.307-460.85z"
     style="fill:#ffa500;fill-opacity:1;stroke-width:0;stroke-miterlimit:4;stroke-dasharray:none"
     inkscape:export-xdpi="24"
     inkscape:export-ydpi="24" />
  <path
     style="fill:#000000;fill-opacity:1;stroke-width:0;stroke-miterlimit:4;stroke-dasharray:none"
     d="M 152.51941,353.08065 C 142.61523,290.76137 134.40854,238.98699 134.28232,238.02648 l -0.22948,-1.74639 h 14.81093 14.81092 l 0.24854,1.54093 c 0.86158,5.3418 20.42165,147.63487 22.43895,163.23596 1.35888,10.50915 2.53582,19.29245 2.61542,19.51846 0.28653,0.81352 0.68565,-1.98898 3.54051,-24.86036 2.32375,-18.61642 10.32171,-75.51999 21.31169,-151.62761 l 1.09772,-7.60192 16.52848,-0.10739 c 9.09067,-0.0591 16.52849,-0.0336 16.52849,0.0565 0,0.0902 3.52123,24.17701 7.82496,53.52633 4.30373,29.34933 8.56096,58.44748 9.46052,64.66257 1.77714,12.27838 4.15383,31.95962 6.1283,50.74799 1.39603,13.28413 1.67652,15.52179 1.91566,15.28266 0.0905,-0.0906 0.9889,-6.24741 1.99635,-13.68191 1.00745,-7.4345 2.67189,-19.342 3.69876,-26.4611 1.02686,-7.1191 5.74856,-41.97496 10.49266,-77.45746 4.74409,-35.48251 8.73025,-65.02215 8.85812,-65.64366 l 0.2325,-1.13002 h 14.76029 c 8.89066,0 14.76029,0.15291 14.76029,0.38452 0,0.35341 -35.83252,225.36325 -36.37118,228.39237 l -0.23749,1.33547 H 274.09161 256.679 l -0.22861,-1.13002 c -0.12573,-0.6215 -4.86016,-33.19487 -10.52096,-72.38525 -10.13079,-70.13677 -12.42597,-86.98526 -13.83592,-101.56711 -0.39161,-4.05012 -0.82349,-7.36385 -0.95972,-7.36385 -0.13622,0 -0.48155,2.17271 -0.76739,4.82825 -1.60521,14.91286 -4.77748,38.03349 -14.21605,103.61175 -5.76956,40.08627 -10.4901,73.1366 -10.4901,73.44518 0,0.46541 -2.99465,0.56071 -17.56661,0.55904 l -17.56662,-0.002 z"
     id="path843"
     transform="scale(2)" />
  <path
     style="fill:#000000;fill-opacity:1;stroke-width:0;stroke-miterlimit:4;stroke-dasharray:none"
     d="m 402.85121,469.27563 c -13.91305,-1.34116 -25.02068,-6.38125 -34.78052,-15.78166 -16.05597,-15.46467 -25.88569,-40.50895 -29.45165,-75.03731 -1.50805,-14.60207 -1.75076,-34.05328 -0.62042,-49.72071 3.55599,-49.28857 19.53963,-80.89346 46.35045,-91.65 7.08803,-2.84373 11.76067,-3.72468 21.01583,-3.96222 11.73239,-0.30112 19.0298,1.03265 27.45733,5.01845 5.48148,2.59246 9.15672,5.16094 13.78157,9.63138 8.50534,8.22138 14.50372,18.25951 19.14668,32.04144 1.48992,4.42263 4.66909,16.46554 4.41401,16.72061 -0.48049,0.4805 -25.45497,11.22839 -25.71605,11.06703 -0.19227,-0.11883 -0.47173,-0.97994 -0.62103,-1.91357 -0.48955,-3.06147 -3.06423,-10.37774 -4.95838,-14.08987 -2.44921,-4.7999 -5.19879,-8.44552 -9.36306,-12.41432 -3.96289,-3.77686 -7.41313,-5.91525 -12.01908,-7.44917 -2.93577,-0.9777 -3.92448,-1.09721 -9.24558,-1.11756 -7.05469,-0.027 -9.42441,0.49106 -15.1811,3.31868 -3.20627,1.57488 -4.49871,2.52131 -7.43457,5.44418 -4.17903,4.16055 -6.33725,7.24371 -9.05886,12.94113 -3.56598,7.46506 -6.20276,16.94282 -7.78561,27.9849 -2.83617,19.78533 -2.48299,46.86751 0.85289,65.40004 4.15068,23.05917 13.60495,38.705 26.51112,43.87313 5.57361,2.23189 13.39239,2.91265 19.28714,1.67928 12.14074,-2.54023 22.08913,-14.21207 28.093,-32.95979 1.14282,-3.56857 2.27478,-7.26613 2.51548,-8.2168 l 0.43763,-1.72848 4.61178,2.7884 c 11.80806,7.13949 19.86363,12.11796 20.36725,12.58728 0.45912,0.42785 0.33027,1.29761 -0.7684,5.18691 -8.92669,31.60063 -23.82052,50.88676 -44.69967,57.88192 -6.61379,2.21582 -15.72607,3.1912 -23.13818,2.4767 z"
     id="path845"
     transform="scale(2)" />
</svg>
