<?xml version="1.0" encoding="UTF-8" standalone="no"?>
<svg id="svg4184" xmlns:rdf="http://www.w3.org/1999/02/22-rdf-syntax-ns#" height="512" xmlns="http://www.w3.org/2000/svg" class="icon" viewBox="0 0 1024 1024" width="512" version="1.1" xmlns:cc="http://creativecommons.org/ns#" xmlns:dc="http://purl.org/dc/elements/1.1/">
 <path id="rect4135" fill="#5fd38d" d="m7.4473-0.080025c-4.1258 0-7.4473 3.5958-7.4473 8.0623v1016h1024v-1016c0-4.4666-3.3215-8.0624-7.4473-8.0624h-1009.1zm809.03 179.33c46.624 0 84.601 16.482 113.93 49.446 29.328 32.633 49.915 80.765 61.76 144.38l-73.322 35.099c-6.2039-34.941-18.426-62.628-36.662-83.062-18.048-20.767-39.381-31.147-64.006-31.147-37.601 0-66.18 20.436-85.729 61.31-19.364 40.872-29.047 100.7-29.047 179.48 0 80.099 9.963 141.24 29.891 183.43 20.116 42.19 49.07 63.294 86.858 63.294 50.195 0 85.066-44.178 104.62-132.52l72.481 47.963c-15.604 67.244-38.547 117.35-68.813 150.31-30.08 32.633-66.173 48.951-108.28 48.951-63.92 0-113.36-31.641-148.33-94.93-34.78-63.62-52.176-152.46-52.176-266.51 0-114.38 16.828-202.23 50.481-263.54 33.652-61.31 82.438-91.967 146.36-91.967zm-764.76 10.385h84.322l57.526 449.96 12.967 108.78c5.2641-45.818 10.341-89.496 15.229-131.03 5.0761-41.864 23.876-184.43 56.398-427.71h93.061l50.195 370.83c3.9478 27.689 10.622 90.323 20.022 187.89l7.0474-57.36 14.946-113.72 47.942-387.65h84.314l-102.65 696.67h-98.699l-53.862-402.97c-6.58-47.467-12.121-97.079-16.633-148.83-4.5119 43.182-8.1838 76.145-11.004 98.889-2.82 22.415-22.842 173.38-60.066 452.9h-98.699l-102.37-696.67z"/>
</svg>
